<svg width="14" height="14" viewBox="0 0 14 14" fill="none" xmlns="http://www.w3.org/2000/svg">
<g id="accessible_FILL1_wght600_GRAD0_opsz40 1">
<path id="Vector" d="M7.04385 3.2373C6.70365 3.2373 6.41688 3.12064 6.18355 2.8873C5.95021 2.65397 5.83355 2.3672 5.83355 2.027C5.83355 1.69637 5.95021 1.41439 6.18355 1.18105C6.41688 0.947721 6.70365 0.831055 7.04385 0.831055C7.37448 0.831055 7.65646 0.947721 7.8898 1.18105C8.12313 1.41439 8.2398 1.69637 8.2398 2.027C8.2398 2.3672 8.12313 2.65397 7.8898 2.8873C7.65646 3.12064 7.37448 3.2373 7.04385 3.2373ZM10.0188 12.8333V9.82886H7.29165C6.89311 9.82886 6.5577 9.69282 6.2854 9.42076C6.01333 9.14846 5.8773 8.81304 5.8773 8.41451V5.11856C5.8773 4.78792 5.98906 4.51084 6.2126 4.2873C6.43613 4.06377 6.71811 3.952 7.05855 3.952C7.22375 3.952 7.38895 3.9884 7.55415 4.0612C7.71958 4.13424 7.90916 4.29221 8.1229 4.5351C8.5604 5.00177 9.03441 5.38339 9.54495 5.67996C10.0552 5.97652 10.607 6.13939 11.2001 6.16856V7.24761C10.7236 7.24761 10.2229 7.14074 9.6979 6.927C9.1729 6.71304 8.68686 6.43106 8.2398 6.08106V8.41451H9.9023C10.2717 8.41451 10.5804 8.54086 10.8284 8.79356C11.0762 9.04626 11.2001 9.35741 11.2001 9.72701V12.8333H10.0188ZM5.73135 12.9351C4.90488 12.9351 4.20243 12.6483 3.624 12.0748C3.04556 11.5013 2.75635 10.7964 2.75635 9.9601C2.75635 9.26011 3.00181 8.62089 3.49275 8.04246C3.98368 7.46402 4.61811 7.12616 5.39605 7.02886V8.25386C4.94875 8.32199 4.5963 8.52371 4.3387 8.859C4.0811 9.19454 3.9523 9.56157 3.9523 9.9601C3.9523 10.4657 4.1224 10.8911 4.4626 11.2362C4.8028 11.5813 5.23061 11.7539 5.74605 11.7539C6.13478 11.7539 6.49691 11.6251 6.83245 11.3675C7.16775 11.1099 7.37436 10.7574 7.4523 10.3101H8.6626C8.5751 11.088 8.23968 11.72 7.65635 12.2061C7.07301 12.6921 6.43135 12.9351 5.73135 12.9351Z" fill="#808190"/>
</g>
</svg>
