<svg width="20" height="20" viewBox="0 0 20 20" fill="none" xmlns="http://www.w3.org/2000/svg">
<g id="local_activity_black_24dp 1" clip-path="url(#clip0_4091_11867)">
<path id="Vector" d="M16.6665 10.0002C16.6665 9.0835 17.4165 8.3335 18.3332 8.3335V5.00016C18.3332 4.0835 17.5832 3.3335 16.6665 3.3335H3.33317C2.4165 3.3335 1.67484 4.0835 1.67484 5.00016V8.3335C2.5915 8.3335 3.33317 9.0835 3.33317 10.0002C3.33317 10.9168 2.5915 11.6668 1.6665 11.6668V15.0002C1.6665 15.9168 2.4165 16.6668 3.33317 16.6668H16.6665C17.5832 16.6668 18.3332 15.9168 18.3332 15.0002V11.6668C17.4165 11.6668 16.6665 10.9168 16.6665 10.0002ZM12.9832 14.0002L9.99984 12.0835L7.0165 14.0002L7.9165 10.5668L5.17484 8.32516L8.70817 8.11683L9.99984 4.8335L11.2832 8.12516L14.8165 8.3335L12.0748 10.5752L12.9832 14.0002Z" fill="black"/>
</g>
<defs>
<clipPath id="clip0_4091_11867">
<rect width="20" height="20" fill="white"/>
</clipPath>
</defs>
</svg>
