<svg width="16" height="22" viewBox="0 0 16 22" fill="none" xmlns="http://www.w3.org/2000/svg">
<path d="M8.07461 4.54688C7.49141 4.54688 6.99981 4.34688 6.59981 3.94688C6.19981 3.54688 5.99981 3.05527 5.99981 2.47207C5.99981 1.90527 6.19981 1.42188 6.59981 1.02188C6.99981 0.621875 7.49141 0.421875 8.07461 0.421875C8.64141 0.421875 9.12481 0.621875 9.52481 1.02188C9.92481 1.42188 10.1248 1.90527 10.1248 2.47207C10.1248 3.05527 9.92481 3.54688 9.52481 3.94688C9.12481 4.34688 8.64141 4.54688 8.07461 4.54688ZM13.1746 20.9971V15.8467H8.49941C7.81621 15.8467 7.24121 15.6135 6.77441 15.1471C6.30801 14.6803 6.07481 14.1053 6.07481 13.4221V7.77188C6.07481 7.20508 6.26641 6.73008 6.64961 6.34688C7.03281 5.96368 7.51621 5.77208 8.09981 5.77208C8.38301 5.77208 8.66621 5.83448 8.94941 5.95928C9.23301 6.08448 9.55801 6.35528 9.92441 6.77168C10.6744 7.57168 11.487 8.22588 12.3622 8.73428C13.237 9.24268 14.1828 9.52188 15.1996 9.57188V11.4217C14.3828 11.4217 13.5244 11.2385 12.6244 10.8721C11.7244 10.5053 10.8912 10.0219 10.1248 9.42188V13.4221H12.9748C13.608 13.4221 14.1372 13.6387 14.5624 14.0719C14.9872 14.5051 15.1996 15.0385 15.1996 15.6721V20.9971H13.1746ZM5.82461 21.1717C4.40781 21.1717 3.20361 20.6801 2.21201 19.6969C1.22041 18.7137 0.724609 17.5053 0.724609 16.0717C0.724609 14.8717 1.14541 13.7759 1.98701 12.7843C2.82861 11.7927 3.91621 11.2135 5.24981 11.0467V13.1467C4.48301 13.2635 3.87881 13.6093 3.43721 14.1841C2.99561 14.7593 2.77481 15.3885 2.77481 16.0717C2.77481 16.9385 3.06641 17.6677 3.64961 18.2593C4.23281 18.8509 4.96621 19.1467 5.84981 19.1467C6.51621 19.1467 7.13701 18.9259 7.71221 18.4843C8.28701 18.0427 8.64121 17.4385 8.77481 16.6717H10.8496C10.6996 18.0053 10.1246 19.0887 9.12461 19.9219C8.12461 20.7551 7.02461 21.1717 5.82461 21.1717Z" fill="black"/>
</svg>
