<svg width="15" height="15" viewBox="0 0 15 15" fill="none" xmlns="http://www.w3.org/2000/svg">
<g id="Frame" clip-path="url(#clip0_13090_44020)">
<path id="Vector" d="M6.49375 2.25C3.04375 2.25 0.25 5.05 0.25 8.5C0.25 11.95 3.04375 14.75 6.49375 14.75C9.95 14.75 12.75 11.95 12.75 8.5C12.75 5.05 9.95 2.25 6.49375 2.25ZM6.5 13.5C3.7375 13.5 1.5 11.2625 1.5 8.5C1.5 5.7375 3.7375 3.5 6.5 3.5C9.2625 3.5 11.5 5.7375 11.5 8.5C11.5 11.2625 9.2625 13.5 6.5 13.5Z" fill="black"/>
<path id="Vector_2" d="M5.8125 5.375H4.875V9.125L8.15625 11.0938L8.625 10.325L5.8125 8.65625V5.375Z" fill="black"/>
</g>
<defs>
<clipPath id="clip0_13090_44020">
<rect width="15" height="15" fill="white"/>
</clipPath>
</defs>
</svg>
