<svg width="24" height="24" viewBox="0 0 24 24" fill="none" xmlns="http://www.w3.org/2000/svg">
<path d="M16.0933 8.37955C15.6098 8.37955 15.2022 8.21569 14.8706 7.88798C14.539 7.56027 14.3732 7.15751 14.3732 6.6797C14.3732 6.21533 14.539 5.81929 14.8706 5.49157C15.2022 5.16386 15.6098 5 16.0933 5C16.5631 5 16.9639 5.16386 17.2955 5.49157C17.6271 5.81929 17.7929 6.21533 17.7929 6.6797C17.7929 7.15751 17.6271 7.56027 17.2955 7.88798C16.9639 8.21569 16.5631 8.37955 16.0933 8.37955ZM20.3212 21.857V17.6373H16.4454C15.879 17.6373 15.4024 17.4462 15.0154 17.0641C14.6287 16.6817 14.4354 16.2106 14.4354 15.6509V11.0217C14.4354 10.5574 14.5942 10.1682 14.9119 9.85426C15.2296 9.54031 15.6303 9.38334 16.1142 9.38334C16.3489 9.38334 16.5837 9.43446 16.8185 9.53671C17.0536 9.63928 17.323 9.86115 17.6268 10.2023C18.2485 10.8577 18.9222 11.3937 19.6478 11.8102C20.373 12.2267 21.1571 12.4555 22 12.4965V14.012C21.3229 14.012 20.6112 13.8619 19.8651 13.5617C19.119 13.2612 18.4283 12.8651 17.7929 12.3736V15.6509H20.1556C20.6805 15.6509 21.1193 15.8283 21.4718 16.1832C21.8239 16.5382 22 16.9752 22 17.4943V21.857H20.3212ZM14.228 22C13.0534 22 12.0551 21.5972 11.2331 20.7917C10.411 19.9862 10 18.9962 10 17.8216C10 16.8385 10.3488 15.9407 11.0465 15.1283C11.7442 14.3159 12.6459 13.8414 13.7515 13.7047V15.4252C13.1158 15.5209 12.6149 15.8042 12.2488 16.2752C11.8827 16.7464 11.6996 17.2619 11.6996 17.8216C11.6996 18.5318 11.9414 19.1292 12.4249 19.6139C12.9084 20.0986 13.5164 20.3409 14.2489 20.3409C14.8013 20.3409 15.316 20.1601 15.7928 19.7983C16.2693 19.4365 16.563 18.9414 16.6737 18.3132H18.3938C18.2694 19.4058 17.7927 20.2934 16.9637 20.9761C16.1347 21.6587 15.2228 22 14.228 22Z" fill="black"/>
<path d="M2.84615 22L5.21538 8.88372L3.69231 9.53488V12.6977H2V8.32558L6.27308 6.32558C6.47051 6.23256 6.67853 6.17829 6.89712 6.16279C7.11571 6.14729 7.32372 6.17829 7.52115 6.25581C7.71859 6.33333 7.90545 6.44186 8.08173 6.5814C8.25801 6.72093 8.40256 6.89922 8.51538 7.11628L9.36154 8.60465C9.72821 9.25581 10.2253 9.7907 10.8529 10.2093C11.4804 10.6279 12.1962 10.8372 13 10.8372V12.6977C12.0128 12.6977 11.1314 12.4729 10.3558 12.0233C9.58013 11.5736 8.91731 11 8.36731 10.3023L7.83846 13.1628L9.61539 15.0233V22H7.92308V15.9535L6.14615 14.4651L4.62308 22H2.84615ZM8.34615 5.72093C7.88077 5.72093 7.48237 5.53876 7.15096 5.17442C6.81955 4.81008 6.65385 4.37209 6.65385 3.86047C6.65385 3.34884 6.81955 2.91085 7.15096 2.54651C7.48237 2.18217 7.88077 2 8.34615 2C8.81154 2 9.20994 2.18217 9.54135 2.54651C9.87276 2.91085 10.0385 3.34884 10.0385 3.86047C10.0385 4.37209 9.87276 4.81008 9.54135 5.17442C9.20994 5.53876 8.81154 5.72093 8.34615 5.72093Z" fill="black"/>
</svg>
