<svg width="748" height="87" viewBox="0 0 748 87" fill="none" xmlns="http://www.w3.org/2000/svg">
<g clip-path="url(#clip0_996_1512)">
<path d="M729.371 25.7621L729.371 45.3384C459.935 22.4547 308.885 25.13 39.4865 51.0491L39.4865 29.2357C308.846 -3.41287 459.902 -4.72026 729.371 25.7621Z" fill="#AAD1F0"/>
<path d="M729.371 34.8991L729.371 44.1961C459.935 21.3124 308.885 23.9877 39.4865 49.9068L39.4865 38.3727C308.846 5.72409 459.902 4.41671 729.371 34.8991Z" fill="#C0E1FC"/>
<path d="M729.371 44.0362L729.371 47.5098C459.935 24.6262 308.885 26.272 39.4865 52.1911L39.4865 47.5098C308.846 14.8612 459.902 13.5538 729.371 44.0362Z" fill="#C0E1FC"/>
</g>
<defs>
<clipPath id="clip0_996_1512">
<rect x="0.862305" width="746.781" height="78.1852" rx="2" transform="rotate(0.631619 0.862305 0)" fill="white"/>
</clipPath>
</defs>
</svg>
