<svg width="19" height="19" viewBox="0 0 19 19" fill="none" xmlns="http://www.w3.org/2000/svg">
<path d="M8.97917 14.1875H10.0208V8.45833H8.97917V14.1875ZM9.5 6.97604C9.68194 6.97604 9.83437 6.91458 9.95729 6.79167C10.0802 6.66875 10.1413 6.51632 10.1406 6.33438C10.1399 6.15243 10.0785 6.00035 9.95625 5.87812C9.83403 5.7559 9.68194 5.69444 9.5 5.69375C9.31806 5.69306 9.16597 5.75451 9.04375 5.87812C8.92153 6.00174 8.86007 6.15417 8.85938 6.33542C8.85868 6.51667 8.92014 6.66875 9.04375 6.79167C9.16736 6.91458 9.31944 6.97604 9.5 6.97604ZM9.50313 18.875C8.2066 18.875 6.98785 18.6292 5.84687 18.1375C4.7059 17.6451 3.71319 16.9771 2.86875 16.1333C2.02431 15.2896 1.3559 14.2979 0.863542 13.1583C0.371181 12.0187 0.125 10.8003 0.125 9.50313C0.125 8.2059 0.371181 6.98715 0.863542 5.84687C1.35521 4.7059 2.02222 3.71319 2.86458 2.86875C3.70694 2.02431 4.69896 1.3559 5.84063 0.863542C6.98229 0.371181 8.20104 0.125 9.49687 0.125C10.7927 0.125 12.0115 0.371181 13.1531 0.863542C14.2941 1.35521 15.2868 2.02257 16.1312 2.86562C16.9757 3.70868 17.6441 4.70069 18.1365 5.84167C18.6288 6.98264 18.875 8.20104 18.875 9.49687C18.875 10.7927 18.6292 12.0115 18.1375 13.1531C17.6458 14.2948 16.9778 15.2875 16.1333 16.1312C15.2889 16.975 14.2972 17.6434 13.1583 18.1365C12.0194 18.6295 10.801 18.8757 9.50313 18.875Z" fill="#1968A8"/>
</svg>
