<svg width="16" height="14" viewBox="0 0 16 14" fill="none" xmlns="http://www.w3.org/2000/svg">
<g clip-path="url(#clip0_1543_2294)">
<path d="M14.9533 6.17795L8.94659 0.922113C8.44659 0.484613 7.56659 0.47878 7.05992 0.922113L1.05992 6.17211C0.539922 6.62711 0.539922 7.36211 1.05992 7.81711L7.05992 13.0671C7.31992 13.2946 7.65992 13.4054 7.99992 13.4054C8.33992 13.4054 8.67992 13.2946 8.93992 13.0671L14.9333 7.82295C15.4599 7.37961 15.4666 6.64461 14.9533 6.17795ZM8.00659 12.2446L2.00659 6.99461L8.00659 1.74461L14.0066 6.99461L8.00659 12.2446ZM5.33326 6.41711V8.75045H6.66659V7.00045H9.33326V8.45878L11.6666 6.41711L9.33326 4.37545V5.83378H5.99992C5.63326 5.83378 5.33326 6.09628 5.33326 6.41711Z" fill="#808190"/>
</g>
<defs>
<clipPath id="clip0_1543_2294">
<rect width="16" height="14" fill="white"/>
</clipPath>
</defs>
</svg>
