<?xml version="1.0" encoding="UTF-8"?>
<svg id="ELEMENTS" xmlns="http://www.w3.org/2000/svg" viewBox="0 0 30 30">
  <defs>
    <style>
      .cls-1 {
        fill: #1968a8;
      }

      .cls-1, .cls-2 {
        stroke-width: 0px;
      }

      .cls-2 {
        fill: #fff;
      }
    </style>
  </defs>
  <path class="cls-2" d="M0,22.15V7.85C0,3.53,3.53,0,7.85,0h14.31c4.32,0,7.85,3.53,7.85,7.85v14.31c0,4.32-3.53,7.85-7.85,7.85h-4.81l-2.52-.61-2.17.61h-4.81c-4.32,0-7.85-3.53-7.85-7.85Z"/>
  <path class="cls-1" d="M20.84,19.83l.66-4.34h-4.16v-2.81c0-1.19.58-2.34,2.44-2.34h1.89v-3.69s-1.72-.29-3.36-.29c-3.43,0-5.67,2.08-5.67,5.84v3.3h-3.81v4.34h3.81v10.17h4.69v-10.17h3.5Z"/>
</svg>