<?xml version="1.0" encoding="UTF-8"?>
<svg id="ELEMENTS" xmlns="http://www.w3.org/2000/svg" viewBox="0 0 30 30">
  <defs>
    <style>
      .cls-1 {
        fill: #1968a8;
      }

      .cls-1, .cls-2 {
        stroke-width: 0px;
      }

      .cls-2 {
        fill: #fff;
      }
    </style>
  </defs>
  <rect class="cls-2" x="0" y="0" width="30" height="30" rx="7.65" ry="7.65" transform="translate(30 0) rotate(90)"/>
  <g>
    <path class="cls-1" d="M19.66,9.35c-.57,0-1.03.46-1.03,1.03s.46,1.03,1.03,1.03,1.03-.46,1.03-1.03-.46-1.03-1.03-1.03Z"/>
    <path class="cls-1" d="M15.07,10.67c-2.39,0-4.33,1.94-4.33,4.33s1.94,4.33,4.33,4.33,4.33-1.94,4.33-4.33-1.94-4.33-4.33-4.33ZM15.07,17.77c-1.53,0-2.77-1.24-2.77-2.77s1.24-2.77,2.77-2.77,2.77,1.24,2.77,2.77-1.24,2.77-2.77,2.77Z"/>
    <path class="cls-1" d="M18.51,23.79h-7.02c-2.91,0-5.28-2.37-5.28-5.28v-7.02c0-2.91,2.37-5.28,5.28-5.28h7.02c2.91,0,5.28,2.37,5.28,5.28v7.02c0,2.91-2.37,5.28-5.28,5.28ZM11.49,7.86c-2,0-3.63,1.63-3.63,3.63v7.02c0,2,1.63,3.63,3.63,3.63h7.02c2,0,3.63-1.63,3.63-3.63v-7.02c0-2-1.63-3.63-3.63-3.63h-7.02Z"/>
  </g>
</svg>