<svg width="23" height="23" viewBox="0 0 23 23" fill="none" xmlns="http://www.w3.org/2000/svg">
<path d="M17.5649 21.5626C16.688 21.5626 15.4563 21.2454 13.6118 20.2149C11.3688 18.9571 9.63397 17.7959 7.40315 15.5709C5.25229 13.4214 4.20561 12.0297 2.74071 9.36404C1.08578 6.35427 1.36789 4.77661 1.68324 4.10234C2.05879 3.29644 2.61313 2.81443 3.32963 2.33601C3.7366 2.06937 4.16728 1.8408 4.61619 1.6532C4.66112 1.63388 4.70289 1.61546 4.74018 1.59884C4.96254 1.49867 5.29946 1.34728 5.72621 1.509C6.01102 1.61591 6.26528 1.83468 6.66328 2.22775C7.47952 3.03275 8.59492 4.82558 9.00641 5.70605C9.28268 6.29947 9.46551 6.69118 9.46596 7.13052C9.46596 7.64488 9.20721 8.04154 8.89321 8.46964C8.83436 8.55005 8.77596 8.62687 8.71936 8.70144C8.3775 9.15066 8.30248 9.28048 8.3519 9.51228C8.45207 9.97812 9.19912 11.3649 10.4268 12.5899C11.6546 13.8149 13.0013 14.5148 13.4689 14.6145C13.7106 14.6662 13.8431 14.588 14.3067 14.234C14.3732 14.1833 14.4415 14.1307 14.5129 14.0781C14.9918 13.7219 15.37 13.4699 15.8723 13.4699H15.875C16.3121 13.4699 16.6863 13.6595 17.3062 13.9721C18.1148 14.38 19.9615 15.481 20.7714 16.2982C21.1654 16.6953 21.3851 16.9486 21.4924 17.233C21.6542 17.6611 21.5019 17.9967 21.4026 18.2213C21.386 18.2586 21.3676 18.2994 21.3482 18.3448C21.1592 18.7929 20.9292 19.2227 20.6614 19.6287C20.1839 20.3429 19.7001 20.8959 18.8924 21.2719C18.4776 21.4681 18.0237 21.5675 17.5649 21.5626Z" fill="#7A7A7A"/>
</svg>
