<svg width="20" height="20" viewBox="0 0 20 20" fill="none" xmlns="http://www.w3.org/2000/svg">
<path d="M13.7397 0.792969C13.8547 0.825469 13.9697 0.852969 14.0822 0.887969C14.9172 1.15297 15.4747 1.88547 15.4897 2.79297C15.5072 3.80047 15.4972 4.80547 15.4922 5.81297C15.4922 6.14797 15.2972 6.35547 14.9647 6.41047C14.6572 6.46047 14.4547 6.69297 14.4572 6.99047C14.4622 7.27797 14.6647 7.50297 14.9647 7.55047C15.3147 7.60797 15.4922 7.82297 15.4922 8.20297C15.4922 9.54047 15.4922 10.8755 15.4922 12.213C15.4922 13.838 15.4922 15.4605 15.4922 17.0855C15.4922 18.123 14.8822 18.9255 13.9172 19.153C13.7497 19.193 13.5722 19.2055 13.3997 19.208C11.1272 19.2105 8.85725 19.213 6.58475 19.208C5.37975 19.208 4.50225 18.3405 4.49975 17.138C4.49475 14.153 4.49975 11.168 4.49975 8.18547C4.49975 7.80297 4.67225 7.60297 5.05225 7.53297C5.34975 7.47797 5.54225 7.24797 5.53725 6.95547C5.52975 6.67297 5.32725 6.45047 5.04225 6.40547C4.70225 6.35297 4.50475 6.13797 4.50225 5.79797C4.49975 4.80297 4.48975 3.80797 4.50225 2.81297C4.51725 1.79047 5.18725 1.01797 6.19225 0.825469C6.21475 0.820469 6.23475 0.805469 6.25475 0.795469C7.04725 0.795469 7.83725 0.795469 8.62975 0.795469C8.92225 0.935469 9.04975 1.16297 9.06725 1.49047C9.09225 1.95547 9.51975 2.31297 9.99725 2.31297C10.4772 2.31297 10.9022 1.95547 10.9272 1.49047C10.9447 1.16297 11.0672 0.932969 11.3647 0.795469C12.1572 0.795469 12.9472 0.795469 13.7397 0.795469V0.792969ZM5.65475 12.948C5.65475 14.338 5.65475 15.728 5.65475 17.118C5.65475 17.693 6.01475 18.0555 6.58225 18.0555C8.85975 18.0555 11.1372 18.0555 13.4147 18.0555C13.9672 18.0555 14.3347 17.7055 14.3347 17.148C14.3397 14.338 14.3347 11.528 14.3397 8.71547C14.3397 8.61797 14.3072 8.56797 14.2197 8.52547C13.5797 8.20297 13.2297 7.68297 13.2297 6.96297C13.2297 6.24297 13.5822 5.72297 14.2222 5.40297C14.3147 5.35797 14.3397 5.30547 14.3372 5.21047C14.3322 4.96547 14.3372 4.71797 14.3372 4.47297C14.3372 3.93297 14.3422 3.39547 14.3372 2.85547C14.3297 2.29797 13.9747 1.94547 13.4247 1.94297C13.0047 1.94297 12.5847 1.94297 12.1672 1.94297C12.0672 1.94297 12.0122 1.96047 11.9697 2.06797C11.6472 2.91797 10.8722 3.45297 9.99475 3.45047C9.12225 3.44797 8.35225 2.91047 8.03475 2.07047C7.99475 1.96297 7.94225 1.94047 7.83975 1.94047C7.43225 1.94547 7.02475 1.94047 6.61725 1.94047C6.00725 1.94047 5.65725 2.28797 5.65725 2.90047C5.65725 3.66047 5.65975 4.42297 5.65475 5.18297C5.65475 5.31797 5.69975 5.37547 5.81725 5.43797C6.43725 5.76547 6.77225 6.28297 6.76975 6.98797C6.76725 7.68547 6.43225 8.19797 5.81725 8.52047C5.69975 8.58047 5.65475 8.64047 5.65725 8.77547C5.66225 10.1655 5.65975 11.5555 5.65975 12.9455L5.65475 12.948Z" fill="#7A7A7A"/>
<path d="M12.89 10.1627C12.89 10.1627 13.2975 10.5327 13.295 10.8452C13.2875 12.1102 13.2925 13.3752 13.2925 14.6402C13.2925 15.1052 13.0775 15.3202 12.61 15.3202C10.955 15.3202 9.29996 15.3202 7.64746 15.3202C7.17996 15.3202 6.96246 15.1052 6.96246 14.6402C6.96246 13.3752 6.96746 12.1102 6.95996 10.8452C6.95996 10.5302 7.36746 10.1602 7.36746 10.1602H12.8925L12.89 10.1627ZM8.11996 14.1552H12.1275V11.3002H8.11996V14.1552Z" fill="#7A7A7A"/>
<path d="M11.6148 7.53047C11.4548 7.53047 11.2948 7.54297 11.1373 7.52797C10.8298 7.49797 10.6123 7.24797 10.6173 6.95297C10.6223 6.65797 10.8473 6.41047 11.1573 6.39797C11.4698 6.38297 11.7848 6.38297 12.0973 6.39797C12.3948 6.41297 12.6148 6.65797 12.6248 6.94547C12.6323 7.23797 12.4298 7.48797 12.1323 7.52297C11.9623 7.54297 11.7898 7.52547 11.6173 7.52547C11.6173 7.52547 11.6173 7.52797 11.6173 7.53047H11.6148Z" fill="#7A7A7A"/>
<path d="M8.49263 6.39019C8.64513 6.39019 8.80013 6.38269 8.95263 6.39019C9.25763 6.41019 9.49013 6.65269 9.49763 6.94519C9.50763 7.23269 9.28262 7.50269 8.98012 7.52269C8.65512 7.54269 8.33013 7.54269 8.00513 7.52269C7.70263 7.50269 7.47763 7.23519 7.48763 6.94519C7.49513 6.65269 7.72763 6.41269 8.03263 6.39019C8.18513 6.38019 8.34013 6.39019 8.49263 6.39019Z" fill="#7A7A7A"/>
</svg>
