<?xml version="1.0" encoding="UTF-8"?>
<svg id="ELEMENTS" xmlns="http://www.w3.org/2000/svg" viewBox="0 0 30 30">
  <defs>
    <style>
      .cls-1 {
        fill: #1968a8;
      }

      .cls-1, .cls-2 {
        stroke-width: 0px;
      }

      .cls-2 {
        fill: #fff;
      }
    </style>
  </defs>
  <rect class="cls-2" x="0" y="-.04" width="30" height="30" rx="7.65" ry="7.65" transform="translate(29.96 -.04) rotate(90)"/>
  <g>
    <path class="cls-1" d="M21.24,20.93l-4.88-7.09-.55-.8-3.49-5.07-.29-.42h-4.29l1.05,1.52,4.64,6.75.55.8,3.73,5.42.29.42h4.29l-1.05-1.52ZM18.5,21.48l-3.88-5.63-.55-.8-4.5-6.54h1.93l3.64,5.29.55.8,4.74,6.88h-1.93Z"/>
    <polygon class="cls-1" points="14.08 15.05 14.63 15.85 13.97 16.61 8.95 22.46 7.71 22.46 13.42 15.81 14.08 15.05"/>
    <polygon class="cls-1" points="21.77 7.54 16.36 13.84 15.7 14.6 15.15 13.8 15.8 13.04 19.47 8.77 20.53 7.54 21.77 7.54"/>
  </g>
</svg>