<svg width="20" height="20" viewBox="0 0 20 20" fill="none" xmlns="http://www.w3.org/2000/svg">
<path d="M7.73239 18.5523C5.87739 18.5523 4.02239 18.5523 2.16489 18.5523C1.47239 18.5523 1.08739 18.1723 1.09239 17.4773C1.09739 16.4248 1.06489 15.3673 1.13239 14.3173C1.24239 12.6198 2.76239 11.1273 4.45489 10.9798C4.68989 10.9598 4.92989 10.9498 5.16489 10.9473C6.95989 10.9448 8.75739 10.9398 10.5524 10.9473C12.4324 10.9548 13.9549 12.2048 14.3224 14.0373C14.3699 14.2673 14.3899 14.5073 14.3924 14.7448C14.3999 15.6723 14.3974 16.5998 14.3949 17.5273C14.3949 18.1598 13.9999 18.5498 13.3624 18.5498C11.4849 18.5498 9.60739 18.5498 7.72989 18.5498L7.73239 18.5523ZM12.4899 16.6373C12.4899 15.9673 12.5049 15.3173 12.4874 14.6673C12.4599 13.6698 11.6474 12.8623 10.6499 12.8573C8.71239 12.8448 6.77489 12.8473 4.83739 12.8573C3.95489 12.8623 3.19989 13.5248 3.03489 14.3898C3.02989 14.4123 3.02239 14.4348 3.02239 14.4548C3.02239 15.1798 3.02239 15.9023 3.02239 16.6373H12.4899Z" fill="black"/>
<path d="M7.62726 9.04757C5.48976 8.94257 3.84476 7.18757 3.94476 5.12007C4.04726 2.95757 5.82226 1.34257 7.97476 1.45257C10.0323 1.55757 11.6398 3.35507 11.5448 5.44257C11.4523 7.48507 9.64726 9.14757 7.62976 9.04757H7.62726ZM7.75476 3.35507C6.70726 3.34757 5.85226 4.19257 5.84726 5.23507C5.84226 6.28257 6.68476 7.14007 7.72726 7.14757C8.77726 7.15757 9.63476 6.31757 9.64226 5.27507C9.64976 4.20757 8.81976 3.36257 7.75476 3.35257V3.35507Z" fill="black"/>
<path d="M16.2801 1.44753C16.9376 1.44753 17.5951 1.44253 18.2551 1.44753C18.5926 1.45003 18.8501 1.78503 18.9026 2.26753C18.9501 2.70253 18.7726 3.13753 18.4751 3.28503C18.3901 3.32753 18.2951 3.34753 18.2026 3.35003C16.9176 3.35503 15.6326 3.35503 14.3476 3.35003C13.9676 3.35003 13.6901 3.00253 13.6501 2.50503C13.6101 2.02253 13.8326 1.57753 14.1701 1.47003C14.2351 1.45003 14.3026 1.44753 14.3701 1.44753C15.0076 1.44753 15.6451 1.44753 16.2826 1.44753H16.2801Z" fill="black"/>
<path d="M16.2854 7.14985C15.6229 7.14985 14.9604 7.15485 14.2954 7.14985C13.9829 7.14735 13.7379 6.84735 13.6654 6.40735C13.6004 6.01235 13.7254 5.57235 13.9804 5.38485C14.0904 5.30485 14.2254 5.25235 14.3479 5.25235C15.6379 5.24235 16.9279 5.24485 18.2179 5.24735C18.6229 5.24735 18.9229 5.67485 18.9129 6.21485C18.9054 6.75485 18.6129 7.14735 18.2129 7.14985C17.5704 7.14985 16.9279 7.14985 16.2854 7.14985Z" fill="black"/>
<path d="M16.275 10.9446C15.6125 10.9446 14.95 10.9496 14.285 10.9446C14 10.9421 13.765 10.6796 13.68 10.3046C13.595 9.93209 13.6625 9.51459 13.885 9.28459C13.995 9.16959 14.145 9.06959 14.275 9.06959C15.61 9.05459 16.9475 9.05459 18.2825 9.06459C18.635 9.06709 18.91 9.50459 18.9075 10.0096C18.9075 10.5171 18.6325 10.9396 18.275 10.9471C17.6075 10.9596 16.94 10.9496 16.27 10.9521L16.275 10.9446Z" fill="black"/>
</svg>
